<svg width="498" height="313" viewBox="0 0 498 313" fill="none" xmlns="http://www.w3.org/2000/svg">
<path d="M220.966 225.394L70.4196 74.8478C70.4196 74.8478 12.5826 142.041 74.6722 213.486C136.762 284.932 220.966 225.394 220.966 225.394Z" fill="#7FE9F8"/>
<path d="M307.046 147.995H278.978C278.978 147.995 276.426 162.454 266.22 178.614C256.013 194.774 241.554 205.832 241.554 205.832L307.046 270.473V147.995Z" fill="#989BDD"/>
<path d="M403.693 279.894V225.582C403.693 225.582 405.208 206.332 421.873 202.18C431.182 199.86 440.972 202.064 447.439 209.128C453.469 215.716 454.446 230.867 454.446 230.867V245.965H470.354C470.354 245.965 482.935 248.258 488.534 253.514C494.361 258.986 497.077 264.033 497.245 272.01C497.435 281.04 493.926 287.27 487.019 292.771C481.805 296.923 465.809 296.545 465.809 296.545H403.693V279.894Z" fill="#EE5959"/>
<circle cx="142.041" cy="108.019" r="106.019" stroke="#F2F0FA" stroke-width="4"/>
<rect x="97.2607" y="134.685" width="176.315" height="176.315" stroke="#F2F0FA" stroke-width="4"/>
<path d="M27.2174 10.2065L50.7883 33.1712H3.64644L27.2174 10.2065Z" fill="#F2F0FA"/>
<path d="M27.2173 10.2065L327.829 310.818H448.717C448.717 310.818 464.05 311.183 469.047 307.173C475.667 301.862 479.03 295.846 478.848 287.126C478.688 279.423 476.084 274.549 470.499 269.266C465.133 264.19 453.074 261.976 453.074 261.976H437.826V247.396C437.826 247.396 436.89 232.765 431.11 226.404C424.912 219.582 415.528 217.455 406.606 219.694C390.633 223.704 389.181 242.293 389.181 242.293V294.739" stroke="#F2F0FA" stroke-width="4"/>
</svg>
